<?xml version="1.0" encoding="iso-8859-1"?>
<!-- Generator: Adobe Illustrator 19.0.0, SVG Export Plug-In . SVG Version: 6.00 Build 0)  -->
<svg xmlns="http://www.w3.org/2000/svg" xmlns:xlink="http://www.w3.org/1999/xlink" version="1.1" id="Layer_1" x="0px" y="0px" viewBox="0 0 512 512" style="enable-background:new 0 0 512 512;" xml:space="preserve" width="512px" height="512px">
<g>
	<g>
		<path d="M496.681,367.951c-3.711-19.138-14.724-35.356-29.801-46.009c3.985-3.441,6.52-8.517,6.52-14.182v-20.482    c0-10.339-8.411-18.75-18.749-18.75h-13.321c-3.32,0-6.51,0.568-9.483,1.602c0.498-6.985,0.756-14.036,0.756-21.156    c0-45.103-10.802-89.516-31.345-129.29c20.282-2.393,36.07-19.68,36.07-40.595c0-4.516-3.66-8.178-8.178-8.178H94.825    c-44.719,0-81.101,36.382-81.101,81.101v186.621C6.509,348.491,1.666,360.24,0.11,373.099c-0.523,4.328,0.836,8.684,3.732,11.951    c2.903,3.275,7.078,5.155,11.452,5.155h11.767c-0.147,1.505-0.229,3.019-0.229,4.544c0,25.553,20.788,46.34,46.34,46.34    c25.553,0,46.341-20.788,46.341-46.34c0-1.524-0.082-3.039-0.229-4.544h19.31c4.516,0,8.178-3.661,8.178-8.178    c0-7.325-1.09-14.398-3.092-21.08h198.607c4.517,0,8.178-3.661,8.178-8.178v-126.62h64.799c0.651,7.573,0.986,15.187,0.986,22.822    c0,14.468-1.093,28.644-3.267,42.492c-0.18,0.844-0.319,1.701-0.424,2.57c-4.694,28.076-13.857,54.783-27.418,79.816H189.21    c-4.516,0-8.178,3.661-8.178,8.178s3.661,8.178,8.178,8.178h189.106c-0.146,1.505-0.229,3.019-0.229,4.544    c0,25.553,20.788,46.341,46.341,46.341s46.34-20.788,46.34-46.341c0-1.524-0.082-3.039-0.228-4.544h7.715    c5.627,0,10.91-2.492,14.493-6.837C496.311,379.051,497.743,373.431,496.681,367.951z M73.173,424.733    c-16.534,0-29.985-13.451-29.985-29.985c0-1.532,0.132-3.047,0.359-4.544h59.253c0.227,1.497,0.359,3.012,0.359,4.544    C103.158,411.282,89.707,424.733,73.173,424.733z M16.508,373.85c4.003-28.059,28.149-49.066,56.665-49.066    c28.788,0,52.681,21.361,56.662,49.066H16.508z M163.751,344.591h-27.245c-12.835-21.627-36.413-36.163-63.333-36.163    c-15.999,0-30.919,5.156-43.093,13.954v-71.942h98.152c19.585,0,35.519,15.933,35.519,35.519V344.591z M287.95,344.591h-43.615    v-54.73h43.615V344.591z M296.129,273.506h-51.792v-16.355h51.792c4.51,0,8.178,3.668,8.178,8.178    S300.638,273.506,296.129,273.506z M334.109,344.591h-29.803v-56.136c9.518-3.376,16.355-12.465,16.355-23.127    c0-13.528-11.006-24.533-24.533-24.533h-51.792V119.977h89.773V344.591z M148.575,103.621c-22.651,0-41.081,18.428-41.081,41.081    v46.195c0,4.516,3.661,8.178,8.178,8.178s8.178-3.661,8.178-8.178v-46.195c0-13.633,11.091-24.725,24.725-24.725h79.405v128.997    v32.711v62.907h-47.875v-58.632c0-28.604-23.271-51.874-51.874-51.874H30.079v-82.073c0-35.702,29.045-64.747,64.746-64.747    h324.749c-3.376,9.519-12.47,16.355-23.132,16.355h-9.059c-0.001,0-0.002,0-0.004,0H148.575z M350.465,209.795v-89.819h32.396    c15.498,27.842,25.807,58.315,30.492,89.819H350.465z M428.756,296.364c0.096-0.577,0.195-1.153,0.287-1.73    c1.311-5.579,6.316-9.749,12.289-9.749h13.321c1.32,0,2.393,1.074,2.393,2.394v20.482c0,1.32-1.073,2.394-2.393,2.394h-13.321    c-0.591,0-1.169-0.055-1.738-0.134c-0.495-0.105-0.991-0.205-1.489-0.3c-5.406-1.432-9.408-6.352-9.408-12.202    C428.697,297.129,428.721,296.745,428.756,296.364z M424.427,424.733c-16.533,0-29.985-13.451-29.985-29.985    c0-1.532,0.132-3.047,0.359-4.544h59.25c0.227,1.496,0.361,3.01,0.361,4.544C454.412,411.282,440.961,424.733,424.427,424.733z     M480.13,372.963c-0.273,0.331-0.88,0.886-1.875,0.886h-74.67c7.904-15.764,14.209-32.121,18.894-49.004    c4.986-0.168,9.662,0.614,14.555,1.344c21.753,4.915,39.213,22.285,43.591,44.874C480.793,371.933,480.449,372.577,480.13,372.963    z" fill="#91DC5A"/>
	</g>
</g>
<g>
	<g>
		<path d="M378.992,237.256h-9.718c-4.517,0-8.178,3.661-8.178,8.178s3.66,8.178,8.178,8.178h9.718c4.517,0,8.178-3.661,8.178-8.178    S383.509,237.256,378.992,237.256z" fill="#91DC5A"/>
	</g>
</g>
<g>
	<g>
		<path d="M503.822,287.942H490.94c-4.517,0-8.178,3.661-8.178,8.178c0,4.516,3.66,8.178,8.178,8.178h12.883    c4.517,0,8.178-3.661,8.178-8.178C512,291.603,508.34,287.942,503.822,287.942z" fill="#91DC5A"/>
	</g>
</g>
<g>
	<g>
		<path d="M509.393,262.961c-1.684-4.19-6.444-6.223-10.638-4.54l-11.955,4.802c-4.19,1.684-6.224,6.445-4.54,10.637    c1.282,3.19,4.351,5.131,7.591,5.131c1.015,0,2.047-0.19,3.046-0.591l11.955-4.802    C509.043,271.914,511.076,267.153,509.393,262.961z" fill="#91DC5A"/>
	</g>
</g>
<g>
	<g>
		<path d="M504.961,317.745l-11.848-5.058c-4.154-1.772-8.958,0.159-10.731,4.31c-1.774,4.154,0.157,8.958,4.31,10.732l11.848,5.058    c1.047,0.447,2.136,0.659,3.206,0.659c3.177,0,6.2-1.862,7.525-4.969C511.045,324.323,509.115,319.517,504.961,317.745z" fill="#91DC5A"/>
	</g>
</g>
<g>
</g>
<g>
</g>
<g>
</g>
<g>
</g>
<g>
</g>
<g>
</g>
<g>
</g>
<g>
</g>
<g>
</g>
<g>
</g>
<g>
</g>
<g>
</g>
<g>
</g>
<g>
</g>
<g>
</g>
</svg>
