<svg height="480pt" viewBox="0 -16 480.0167 480" width="480pt" xmlns="http://www.w3.org/2000/svg"><path d="m449.550781 96.007812h-65.542969v-16c0-4.417968-3.582031-8-8-8h-8v-32c-.027343-22.078124-17.917968-39.9726558-40-39.9999995h-176c-22.078124.0273437-39.972656 17.9218755-40 39.9999995v32h-8c-4.417968 0-8 3.582032-8 8v16h-65.542968c-17.234375.453126-30.855469 14.765626-30.4570315 32v272c-.3984375 17.238282 13.2226565 31.546876 30.4570315 32h9.542968c0 8.835938 7.164063 16 16 16h16c8.835938 0 16-7.164062 16-16h304c0 8.835938 7.164063 16 16 16h16c8.835938 0 16-7.164062 16-16h9.542969c17.234375-.453124 30.855469-14.761718 30.457031-32v-272c.398438-17.234374-13.222656-31.546874-30.457031-32zm-281.542969 0v-16c0-4.417968-3.582031-8-8-8h-8v-24c0-4.417968 3.582032-8 8-8h160c4.417969 0 8 3.582032 8 8v24h-8c-4.417968 0-8 3.582032-8 8v16zm160-8h40v8h-40zm-200-48c0-13.253906 10.746094-24 24-24h176c13.253907 0 24 10.746094 24 24v32h-8v-24c0-13.253906-10.746093-24-24-24h-160c-13.253906 0-24 10.746094-24 24v24h-8zm-16 48h40v8h-40zm-81.542968 24h419.085937c8.398438.457032 14.851563 7.601563 14.457031 16v72h-24v-8c0-8.835937-7.164062-16-16-16h-16c-8.835937 0-16 7.164063-16 16v8h-88.632812c-17.28125-15.332031-39.542969-23.863281-62.648438-24h-.71875c-23.3125.007813-45.816406 8.546876-63.269531 24h-88.730469v-8c0-8.835937-7.164062-16-16-16h-16c-8.835937 0-16 7.164063-16 16v8h-24v-72c-.394531-8.398437 6.0625-15.542968 14.457032-16zm377.542968 104h16v16h-16zm0-16v-8h16v8zm-168-8h.601563c44.289063.164063 80.085937 36.160157 80.003906 80.453126-.082031 44.292968-36.011719 80.15625-80.304687 80.15625-44.292969 0-80.222656-35.863282-80.304688-80.15625-.082031-44.292969 35.710938-80.289063 80.003906-80.453126zm-184 24h16v16h-16zm0-16v-8h16v8zm393.542969 216h-419.085937c-8.394532-.457031-14.851563-7.601562-14.457032-16v-184h24v16c0 8.835938 7.164063 16 16 16h16c8.835938 0 16-7.164062 16-16v-16h74.175782c-20.992188 29.101563-23.984375 67.488282-7.75 99.488282 16.230468 32.003906 48.972656 52.261718 84.855468 52.511718h.71875c36.023438.046876 69.035157-20.101562 85.460938-52.164062 16.421875-32.0625 13.488281-70.625-7.597656-99.835938h74.136718v16c0 8.835938 7.164063 16 16 16h16c8.835938 0 16-7.164062 16-16v-16h24v184c.394532 8.398438-6.058593 15.542969-14.457031 16zm0 0"/><path d="m176.007812 264.007812h16v16h-16zm0 0"/><path d="m288.007812 264.007812h16v16h-16zm0 0"/><path d="m224.007812 320.007812h8v16h16v-16h8c13.253907 0 24-10.746093 24-24v-8c0-13.253906-10.746093-24-24-24h-8v-24h8c4.417969 0 8 3.582032 8 8v8h16v-8c0-13.253906-10.746093-24-24-24h-8v-16h-16v16h-8c-13.253906 0-24 10.746094-24 24v8c0 13.253907 10.746094 24 24 24h8v24h-8c-4.417968 0-8-3.582031-8-8v-8h-16v8c0 13.253907 10.746094 24 24 24zm0-56c-4.417968 0-8-3.582031-8-8v-8c0-4.417968 3.582032-8 8-8h8v24zm24 16h8c4.417969 0 8 3.582032 8 8v8c0 4.417969-3.582031 8-8 8h-8zm0 0"/></svg>