<?xml version="1.0" encoding="windows-1252"?>
<!-- Generator: Adobe Illustrator 19.0.0, SVG Export Plug-In . SVG Version: 6.00 Build 0)  -->
<svg xmlns="http://www.w3.org/2000/svg" xmlns:xlink="http://www.w3.org/1999/xlink" version="1.1" id="Capa_1" x="0px" y="0px" viewBox="0 0 512 512" style="enable-background:new 0 0 512 512;" xml:space="preserve" width="512px" height="512px">
<g>
	<g>
		<path d="M475.746,100h-40.22c0.4-1.795,0.619-3.658,0.619-5.572V25.572c0-14.1-11.472-25.572-25.573-25.572h-24.636    c-41.774,0-78.182,23.408-96.801,57.794c-7.18-10.649-19.353-17.667-33.135-17.667c-14.533,0-27.274,7.806-34.261,19.442    C203.424,24.216,166.488,0,124,0H99.364c-14.1,0-25.572,11.472-25.572,25.572v68.855c0,1.914,0.218,3.777,0.619,5.572H36.254    C21.777,100,10,111.777,10,126.253v55.493c0,11.22,7.077,20.814,17,24.564V477.5c0,19.023,15.477,34.5,34.5,34.5h389    c19.023,0,34.5-15.477,34.5-34.5V370.818c0-5.522-4.478-10-10-10c-5.522,0-10,4.478-10,10V477.5c0,7.995-6.505,14.5-14.5,14.5H342    v-65.513c0-5.522-4.478-10-10-10c-5.522,0-10,4.478-10,10V492h-24V208h16.04v5.897c0,4.039,2.43,7.681,6.158,9.232    c3.73,1.553,8.025,0.709,10.89-2.139l24.952-24.79l24.952,24.791c1.911,1.899,4.459,2.907,7.05,2.907    c1.294,0,2.599-0.251,3.84-0.768c3.729-1.551,6.158-5.194,6.158-9.232V208h39.046H465v75c0,5.522,4.478,10,10,10    c5.522,0,10-4.478,10-10v-76.689c9.923-3.75,17-13.345,17-24.564v-55.493C502,111.777,490.223,100,475.746,100z M256,60.126    c10.994,0,19.937,8.943,19.937,19.937V100h-39.873V80.063h-0.001C236.063,69.07,245.006,60.126,256,60.126z M93.792,25.572    c0-3.073,2.5-5.572,5.572-5.572H124c38.825,0,71.977,24.718,84.573,59.239C188.829,63.033,163.974,54,138,54    c-5.522,0-10,4.477-10,10s4.478,10,10,10c23.989,0,46.817,9.39,63.803,26H99.364c-3.072,0-5.572-2.5-5.572-5.572V25.572z M214,492    h-78.291L214,413.709V492z M214,385.424L107.424,492H61.5c-3.826,0-7.3-1.5-9.894-3.93L214,325.676V385.424z M214,209.491    c-0.343,0.263-0.677,0.543-0.991,0.856l-60.081,60.08c-3.905,3.905-3.905,10.237,0,14.143c1.953,1.952,4.512,2.929,7.071,2.929    s5.118-0.977,7.071-2.929L214,237.641v59.749l-167,167v-59.749l65.154-65.154c3.905-3.905,3.905-10.237,0-14.143    c-3.906-3.904-10.236-3.904-14.143,0L47,376.356v-59.748L155.607,208H214V209.491z M47,288.323V208h44.52h35.803L47,288.323z     M278,492h-44V208h40.333H278V492z M314.04,188.001H37V188h-0.746c-3.448,0-6.254-2.805-6.254-6.253v-55.493    c0-3.448,2.806-6.253,6.254-6.253H314.04V188.001z M378.04,189.865l-14.952-14.855c-1.949-1.938-4.499-2.906-7.048-2.906    s-5.099,0.969-7.048,2.906l-14.952,14.855V120h44V189.865z M388.04,99.999h-64h-13.844C327.183,83.39,350.011,74,374,74    c5.522,0,10-4.477,10-10s-4.478-10-10-10c-27.266,0-53.302,9.951-73.483,27.708C312.407,45.905,346.194,20,385.937,20h24.636    c3.072,0,5.572,2.5,5.572,5.572v68.855c0,3.073-2.5,5.572-5.572,5.572H388.04z M482,181.746c0,3.448-2.806,6.253-6.254,6.253H475    h-76.96V120h77.706c3.448,0,6.254,2.805,6.254,6.253V181.746z" fill="#28c6dc"/>
	</g>
</g>
<g>
	<g>
		<path d="M482.069,320.6c-1.859-1.871-4.439-2.93-7.069-2.93s-5.21,1.06-7.07,2.93c-1.86,1.86-2.93,4.431-2.93,7.07    c0,2.63,1.069,5.2,2.93,7.07c1.86,1.859,4.44,2.93,7.07,2.93s5.21-1.07,7.069-2.93c1.86-1.87,2.931-4.44,2.931-7.07    S483.93,322.46,482.069,320.6z" fill="#28c6dc"/>
	</g>
</g>
<g>
	<g>
		<path d="M339.069,382.56c-1.859-1.859-4.439-2.93-7.069-2.93s-5.21,1.07-7.07,2.93c-1.86,1.86-2.93,4.44-2.93,7.07    s1.069,5.21,2.93,7.07c1.86,1.859,4.44,2.93,7.07,2.93s5.21-1.07,7.069-2.93c1.86-1.86,2.931-4.44,2.931-7.07    S340.93,384.42,339.069,382.56z" fill="#28c6dc"/>
	</g>
</g>
<g>
	<g>
		<path d="M140.049,297.451c-1.86-1.871-4.44-2.931-7.07-2.931s-5.21,1.061-7.069,2.931c-1.86,1.859-2.931,4.439-2.931,7.069    s1.07,5.21,2.931,7.07c1.859,1.86,4.439,2.93,7.069,2.93c2.641,0,5.21-1.069,7.07-2.93c1.86-1.861,2.93-4.44,2.93-7.07    S141.91,299.31,140.049,297.451z" fill="#28c6dc"/>
	</g>
</g>
<g>
</g>
<g>
</g>
<g>
</g>
<g>
</g>
<g>
</g>
<g>
</g>
<g>
</g>
<g>
</g>
<g>
</g>
<g>
</g>
<g>
</g>
<g>
</g>
<g>
</g>
<g>
</g>
<g>
</g>
</svg>