<svg height="512pt" viewBox="0 -34 512.001 512" width="512pt" xmlns="http://www.w3.org/2000/svg"><path d="m363 368.582031c-.648438 0-1.308594-.070312-1.949219-.191406-.640625-.128906-1.269531-.316406-1.871093-.566406-.609376-.25-1.1875-.5625-1.730469-.921875-.550781-.367188-1.058594-.789063-1.519531-1.25-.460938-.460938-.878907-.96875-1.238282-1.519532-.359375-.539062-.671875-1.121093-.921875-1.71875-.25-.613281-.449219-1.242187-.570312-1.871093-.128907-.652344-.199219-1.308594-.199219-1.960938 0-.648437.070312-1.308593.199219-1.949219.121093-.640624.320312-1.269531.570312-1.871093.25-.609375.5625-1.1875.921875-1.726563.359375-.550781.777344-1.0625 1.238282-1.523437.460937-.460938.96875-.878907 1.519531-1.238281.542969-.359376 1.121093-.671876 1.730469-.921876.601562-.25 1.230468-.4375 1.871093-.566406 1.289063-.261718 2.609375-.261718 3.898438 0 .640625.128906 1.269531.316406 1.871093.566406.609376.25 1.1875.5625 1.730469.921876.546875.359374 1.058594.777343 1.519531 1.238281.460938.460937.878907.972656 1.238282 1.523437.359375.539063.671875 1.117188.921875 1.726563.25.601562.4375 1.230469.570312 1.871093.128907.640626.199219 1.300782.199219 1.949219 0 .652344-.070312 1.308594-.199219 1.960938-.132812.628906-.320312 1.257812-.570312 1.871093-.25.597657-.5625 1.179688-.921875 1.71875-.359375.550782-.777344 1.058594-1.238282 1.519532-.460937.460937-.972656.882812-1.519531 1.25-.542969.359375-1.121093.671875-1.730469.921875-.601562.25-1.230468.4375-1.871093.566406-.640625.121094-1.300781.191406-1.949219.191406zm0 0"/><path d="m481.363281 0h-450.726562c-16.894531 0-30.636719 13.746094-30.636719 30.636719v347.3125c0 16.890625 13.742188 30.636719 30.636719 30.636719h9.808593v26c0 5.523437 4.480469 10 10 10h116c5.523438 0 10-4.476563 10-10v-26h159.109376v26c0 5.523437 4.476562 10 10 10h116c5.523437 0 10-4.476563 10-10v-26h9.808593c16.894531 0 30.636719-13.746094 30.636719-30.636719v-347.3125c0-16.890625-13.742188-30.636719-30.636719-30.636719zm-324.917969 424.585938h-96v-16h96zm295.109376 0h-96v-16h96zm40.445312-46.640626c0 5.867188-4.773438 10.640626-10.636719 10.640626h-450.726562c-5.863281 0-10.636719-4.773438-10.636719-10.640626v-347.308593c0-5.863281 4.773438-10.636719 10.636719-10.636719h450.726562c5.863281 0 10.636719 4.773438 10.636719 10.636719zm0 0"/><path d="m462 40h-412c-5.523438 0-10 4.476562-10 10v308.585938c0 5.523437 4.476562 10 10 10h259c5.523438 0 10-4.476563 10-10 0-5.523438-4.476562-10-10-10h-249v-24.191407h38.859375c5.523437 0 10-4.476562 10-10v-69.699219c0-5.523437-4.476563-10-10-10h-38.859375v-60.804687h38.859375c5.523437 0 10-4.480469 10-10v-69.703125c0-5.519531-4.476563-10-10-10h-38.859375v-24.1875h392v64.417969h-38.859375c-5.523437 0-10 4.480469-10 10v139.746093c0 5.523438 4.476563 10 10 10h38.859375v64.421876h-33c-5.523438 0-10 4.476562-10 10 0 5.523437 4.476562 10 10 10h43c5.523438 0 10-4.476563 10-10v-308.585938c0-5.523438-4.476562-10-10-10zm-373.140625 214.695312v49.699219h-28.859375v-49.699219zm0-150.507812v49.703125h-28.859375v-49.703125zm334.28125 159.976562v-119.746093h28.859375v119.746093zm0 0"/><path d="m256 100.292969c-57.347656 0-104 46.652343-104 104 0 57.34375 46.652344 104 104 104s104-46.65625 104-104c0-57.347657-46.652344-104-104-104zm0 188c-46.316406 0-84-37.683594-84-84 0-46.316407 37.683594-84 84-84s84 37.683593 84 84c0 46.316406-37.683594 84-84 84zm0 0"/><path d="m256 141.292969c-34.738281 0-63 28.261719-63 63s28.261719 63 63 63 63-28.261719 63-63-28.261719-63-63-63zm36.636719 85.492187-22.492188-22.492187 22.492188-22.492188c4.035156 6.546875 6.363281 14.253907 6.363281 22.492188s-2.328125 15.945312-6.363281 22.492187zm-14.144531-59.128906-22.492188 22.492188-22.492188-22.492188c6.546876-4.035156 14.253907-6.363281 22.492188-6.363281s15.945312 2.328125 22.492188 6.363281zm-59.128907 59.128906c-4.035156-6.546875-6.363281-14.253906-6.363281-22.492187s2.328125-15.945313 6.363281-22.492188l22.492188 22.492188zm14.144531 14.140625 22.492188-22.492187 22.492188 22.492187c-6.546876 4.035157-14.253907 6.367188-22.492188 6.367188s-15.945312-2.332031-22.492188-6.367188zm0 0"/></svg>