<?xml version="1.0"?>
<svg xmlns="http://www.w3.org/2000/svg" height="512px" version="1.1" viewBox="0 0 933 933.74934" width="512px">
<g id="surface1">
<path d="M 249.300781 435.109375 C 214.933594 435.109375 187.070312 462.972656 187.070312 497.339844 C 187.070312 531.710938 214.933594 559.570312 249.300781 559.570312 C 283.664062 559.570312 311.53125 531.710938 311.53125 497.339844 C 311.53125 462.972656 283.664062 435.109375 249.300781 435.109375 Z M 249.300781 528.453125 C 232.117188 528.453125 218.1875 514.519531 218.1875 497.339844 C 218.1875 480.152344 232.117188 466.222656 249.300781 466.222656 C 266.480469 466.222656 280.410156 480.152344 280.410156 497.339844 C 280.410156 514.519531 266.480469 528.453125 249.300781 528.453125 Z M 249.300781 528.453125 " style=" fill-rule:nonzero;fill-opacity:1;" stroke="#933EC5" fill="#933EC5"/>
<path d="M 649.800781 250.585938 C 687.535156 178.578125 669.40625 89.964844 606.429688 38.554688 C 543.449219 -12.851562 452.996094 -12.851562 390.015625 38.554688 C 327.035156 89.964844 308.914062 178.578125 346.640625 250.585938 C 333.632812 251.777344 320.710938 253.769531 307.9375 256.550781 C 282.800781 213.601562 236.835938 187.144531 187.070312 186.984375 C 178.476562 186.984375 171.511719 193.941406 171.511719 202.539062 L 171.511719 323.992188 C 118.941406 369 82.9375 430.296875 69.21875 498.136719 L 15.933594 498.136719 C 7.34375 498.136719 0.375 505.097656 0.375 513.695312 L 0.375 638.15625 C 0.375 646.75 7.34375 653.710938 15.933594 653.710938 L 77.203125 653.710938 C 100.660156 727.910156 150.929688 790.699219 218.1875 829.839844 L 218.1875 918.195312 C 218.1875 926.785156 225.15625 933.75 233.742188 933.75 L 373.761719 933.75 C 382.355469 933.75 389.324219 926.785156 389.324219 918.195312 L 389.324219 871.519531 L 607.128906 871.519531 L 607.128906 918.195312 C 607.128906 926.785156 614.09375 933.75 622.679688 933.75 L 762.703125 933.75 C 771.296875 933.75 778.261719 926.785156 778.261719 918.195312 L 778.261719 829.839844 C 865.605469 779.359375 923.027344 689.636719 932.277344 589.171875 C 933.277344 584.828125 933.800781 580.382812 933.839844 575.921875 L 933.839844 560.371094 C 933.605469 399.15625 810.386719 264.765625 649.800781 250.585938 Z M 498.222656 31.40625 C 575.554688 31.40625 638.242188 94.097656 638.242188 171.429688 C 638.242188 248.75 575.554688 311.449219 498.222656 311.449219 C 420.894531 311.449219 358.207031 248.75 358.207031 171.429688 C 358.289062 94.128906 420.925781 31.492188 498.222656 31.40625 Z M 901.664062 583.578125 C 897.648438 598.59375 883.164062 608.347656 867.738281 606.421875 C 852.316406 604.488281 840.683594 591.46875 840.488281 575.921875 L 840.488281 560.371094 L 809.378906 560.371094 L 809.378906 575.921875 C 809.378906 610.289062 837.238281 638.15625 871.605469 638.15625 C 878.847656 638.089844 886.023438 636.742188 892.792969 634.179688 C 872.578125 708.191406 822.878906 770.664062 755.3125 807.011719 C 750.28125 809.726562 747.144531 814.988281 747.144531 820.710938 L 747.144531 902.636719 L 638.242188 902.636719 L 638.242188 855.960938 C 638.242188 847.363281 631.273438 840.410156 622.679688 840.410156 L 373.761719 840.410156 C 365.167969 840.410156 358.207031 847.363281 358.207031 855.960938 L 358.207031 902.636719 L 249.300781 902.636719 L 249.300781 820.710938 C 249.300781 814.988281 246.160156 809.726562 241.136719 807.011719 C 173.714844 770.480469 124.128906 708.015625 103.863281 634.058594 C 102.019531 627.296875 95.878906 622.589844 88.855469 622.601562 L 31.496094 622.601562 L 31.496094 529.25 L 82.203125 529.25 C 89.855469 529.246094 96.371094 523.6875 97.570312 516.132812 C 108.289062 448.273438 143.664062 386.742188 196.898438 343.320312 C 200.523438 340.363281 202.625 335.9375 202.625 331.261719 L 202.625 219.25 C 238.921875 224.640625 270.105469 247.847656 285.6875 281.078125 C 288.851562 287.863281 296.410156 291.4375 303.675781 289.566406 C 324.226562 284.21875 345.3125 281.207031 366.542969 280.589844 C 376.351562 292.320312 387.667969 302.695312 400.214844 311.449219 L 342.644531 311.449219 L 342.644531 342.5625 L 653.796875 342.5625 L 653.796875 311.449219 L 596.316406 311.449219 C 608.78125 302.714844 620.046875 292.367188 629.804688 280.6875 C 781.503906 284.632812 902.488281 408.625 902.71875 560.371094 C 902.71875 568.144531 902.285156 575.921875 901.664062 583.578125 Z M 901.664062 583.578125 " style=" fill-rule:nonzero;fill-opacity:1;" stroke="#933EC5" fill="#933EC5"/>
<path d="M 498.222656 109.199219 L 498.222656 78.078125 C 446.691406 78.128906 404.933594 119.894531 404.875 171.429688 L 435.996094 171.429688 C 435.996094 137.054688 463.859375 109.199219 498.222656 109.199219 Z M 498.222656 109.199219 " style=" fill-rule:nonzero;fill-opacity:1;" stroke="#933EC5" fill="#933EC5"/>
<path d="M 498.222656 264.773438 C 549.757812 264.714844 591.515625 222.953125 591.570312 171.429688 L 560.453125 171.429688 C 560.453125 205.796875 532.585938 233.652344 498.222656 233.652344 Z M 498.222656 264.773438 " style=" fill-rule:nonzero;fill-opacity:1;" stroke="#933EC5" fill="#933EC5"/>
<path d="M 762.925781 142.859375 C 764.183594 150.347656 770.667969 155.820312 778.261719 155.820312 C 785.847656 155.820312 792.332031 150.347656 793.597656 142.859375 C 797.835938 117.515625 817.691406 97.652344 843.042969 93.421875 C 850.527344 92.152344 856.007812 85.667969 856.007812 78.078125 C 856.007812 70.484375 850.527344 64.007812 843.042969 62.734375 C 817.691406 58.503906 797.835938 38.640625 793.597656 13.304688 C 792.332031 5.8125 785.847656 0.332031 778.261719 0.332031 C 770.667969 0.332031 764.183594 5.8125 762.925781 13.304688 C 758.679688 38.640625 738.824219 58.503906 713.480469 62.734375 C 705.996094 64.007812 700.515625 70.484375 700.515625 78.078125 C 700.515625 85.667969 705.996094 92.152344 713.480469 93.421875 C 738.824219 97.652344 758.679688 117.515625 762.925781 142.859375 Z M 778.261719 55.855469 C 784.324219 64.488281 791.839844 72.007812 800.476562 78.078125 C 791.839844 84.144531 784.324219 91.664062 778.261719 100.296875 C 772.191406 91.664062 764.675781 84.144531 756.042969 78.078125 C 764.675781 72.007812 772.191406 64.488281 778.261719 55.855469 Z M 778.261719 55.855469 " style=" fill-rule:nonzero;fill-opacity:1;" stroke="#933EC5" fill="#933EC5"/>
</g>
</svg>
