<svg xmlns="http://www.w3.org/2000/svg" height="934pt" version="1.1" viewBox="0 1 934 934.99806" width="934pt">
<g id="surface1">
<path d="M 924.648438 125.425781 L 535.078125 0.761719 C 531.992188 -0.253906 528.660156 -0.253906 525.566406 0.761719 L 135.996094 125.425781 C 129.542969 127.492188 125.167969 133.492188 125.167969 140.265625 L 125.167969 202.59375 C 125.167969 211.199219 132.144531 218.179688 140.753906 218.179688 L 187.5 218.179688 L 187.5 327.257812 L 218.664062 327.257812 L 218.664062 218.179688 L 281 218.179688 L 281 358.429688 L 312.167969 358.429688 L 312.167969 218.179688 L 374.5 218.179688 L 374.5 358.429688 L 405.664062 358.429688 L 405.664062 218.179688 L 468 218.179688 L 468 358.429688 L 499.15625 358.429688 L 499.15625 218.179688 L 561.492188 218.179688 L 561.492188 374.007812 L 592.664062 374.007812 L 592.664062 218.179688 L 654.988281 218.179688 L 654.988281 436.339844 L 686.15625 436.339844 L 686.15625 218.179688 L 748.492188 218.179688 L 748.492188 514.257812 L 732.90625 514.257812 L 732.90625 545.421875 L 904.324219 545.421875 L 904.324219 607.753906 L 748.492188 607.753906 L 748.492188 638.917969 L 919.902344 638.917969 C 928.507812 638.917969 935.488281 631.949219 935.488281 623.339844 L 935.488281 529.839844 C 935.488281 521.230469 928.507812 514.257812 919.902344 514.257812 L 873.152344 514.257812 L 873.152344 218.179688 L 919.902344 218.179688 C 928.507812 218.179688 935.488281 211.199219 935.488281 202.59375 L 935.488281 140.265625 C 935.488281 133.492188 931.101562 127.492188 924.648438 125.425781 Z M 841.988281 514.257812 L 779.65625 514.257812 L 779.65625 218.179688 L 841.988281 218.179688 Z M 904.324219 187.015625 L 156.339844 187.015625 L 156.339844 151.621094 L 530.328125 31.957031 L 904.324219 151.621094 Z M 904.324219 187.015625 " style=" stroke:none;fill-rule:nonzero;fill:rgb(0%,0%,0%);fill-opacity:1;" />
<path d="M 483.582031 109.09375 C 483.582031 134.914062 504.507812 155.84375 530.328125 155.84375 C 556.140625 155.84375 577.078125 134.914062 577.078125 109.09375 C 577.078125 83.269531 556.140625 62.34375 530.328125 62.34375 C 504.507812 62.34375 483.582031 83.269531 483.582031 109.09375 Z M 545.90625 109.09375 C 545.90625 117.699219 538.9375 124.679688 530.328125 124.679688 C 521.722656 124.679688 514.742188 117.699219 514.742188 109.09375 C 514.742188 100.488281 521.722656 93.507812 530.328125 93.507812 C 538.9375 93.507812 545.90625 100.488281 545.90625 109.09375 Z M 545.90625 109.09375 " style=" stroke:none;fill-rule:nonzero;fill:rgb(0%,0%,0%);fill-opacity:1;" />
<path d="M 16.082031 716.839844 L 75.515625 716.839844 C 86.085938 748.75 102.972656 778.203125 125.167969 803.441406 L 125.167969 919.414062 C 125.167969 928.023438 132.144531 935 140.753906 935 L 265.417969 935 C 274.019531 935 281 928.023438 281 919.414062 L 281 886.300781 C 291.339844 887.59375 301.75 888.242188 312.167969 888.253906 L 468 888.253906 C 478.414062 888.242188 488.820312 887.59375 499.15625 886.300781 L 499.15625 919.414062 C 499.15625 928.023438 506.136719 935 514.742188 935 L 639.414062 935 C 648.015625 935 654.988281 928.023438 654.988281 919.414062 L 654.988281 803.464844 C 685.289062 769.140625 705.527344 727.125 713.488281 682.039062 C 715.996094 675.757812 717.292969 669.058594 717.324219 662.292969 L 717.324219 638.917969 C 717.15625 501.285156 605.628906 389.75 468 389.59375 L 312.167969 389.59375 C 286.746094 389.585938 261.472656 393.515625 237.253906 401.253906 C 218.398438 365.394531 181.261719 342.917969 140.753906 342.84375 C 132.144531 342.84375 125.167969 349.824219 125.167969 358.429688 L 125.167969 474.347656 C 102.988281 499.621094 86.101562 529.085938 75.515625 561.007812 L 16.082031 561.007812 C 7.480469 561.007812 0.5 567.984375 0.5 576.59375 L 0.5 701.253906 C 0.5 709.859375 7.480469 716.839844 16.082031 716.839844 Z M 31.667969 592.167969 L 87.085938 592.167969 C 94.082031 592.167969 100.234375 587.5 102.101562 580.75 C 111.441406 547.238281 128.601562 516.4375 152.203125 490.882812 C 154.855469 488.003906 156.324219 484.238281 156.339844 480.328125 L 156.339844 375.558594 C 183.066406 381.082031 204.964844 400.164062 214.117188 425.878906 C 215.515625 429.839844 218.464844 433.066406 222.273438 434.828125 C 226.085938 436.582031 230.449219 436.734375 234.371094 435.230469 C 259.1875 425.667969 285.558594 420.753906 312.167969 420.753906 L 468 420.753906 C 588.429688 420.890625 686.03125 518.488281 686.15625 638.917969 C 686.097656 650.488281 685.109375 662.03125 683.195312 673.433594 C 678.113281 682.824219 667.300781 687.5625 656.964844 684.933594 C 646.617188 682.296875 639.378906 672.972656 639.414062 662.292969 L 639.414062 638.917969 L 608.242188 638.917969 L 608.242188 662.292969 C 608.242188 692.414062 632.65625 716.839844 662.789062 716.839844 C 665.851562 716.78125 668.910156 716.472656 671.929688 715.917969 C 661.988281 742.203125 647.054688 766.320312 627.96875 786.957031 C 625.300781 789.835938 623.828125 793.617188 623.828125 797.535156 L 623.828125 903.828125 L 530.328125 903.828125 L 530.328125 867.984375 C 530.328125 863.3125 528.226562 858.878906 524.601562 855.917969 C 520.972656 852.960938 516.210938 851.78125 511.625 852.71875 C 497.265625 855.613281 482.644531 857.078125 468 857.082031 L 312.167969 857.082031 C 297.511719 857.070312 282.890625 855.605469 268.527344 852.699219 C 263.949219 851.765625 259.183594 852.941406 255.554688 855.90625 C 251.929688 858.863281 249.832031 863.292969 249.832031 867.976562 L 249.832031 903.828125 L 156.339844 903.828125 L 156.339844 797.460938 C 156.339844 793.535156 154.851562 789.761719 152.1875 786.875 C 128.59375 761.355469 111.425781 730.578125 102.101562 697.085938 C 100.234375 690.339844 94.082031 685.660156 87.085938 685.671875 L 31.667969 685.671875 Z M 31.667969 592.167969 " style=" stroke:none;fill-rule:nonzero;fill:rgb(0%,0%,0%);fill-opacity:1;" />
<path d="M 203.082031 638.917969 C 228.902344 638.917969 249.832031 617.988281 249.832031 592.167969 C 249.832031 566.34375 228.902344 545.421875 203.082031 545.421875 C 177.265625 545.421875 156.339844 566.34375 156.339844 592.167969 C 156.339844 617.988281 177.265625 638.917969 203.082031 638.917969 Z M 203.082031 576.59375 C 211.6875 576.59375 218.664062 583.5625 218.664062 592.167969 C 218.664062 600.777344 211.6875 607.753906 203.082031 607.753906 C 194.480469 607.753906 187.5 600.777344 187.5 592.167969 C 187.5 583.5625 194.480469 576.59375 203.082031 576.59375 Z M 203.082031 576.59375 " style=" stroke:none;fill-rule:nonzero;fill:rgb(0%,0%,0%);fill-opacity:1;" />
<path d="M 312.167969 451.925781 L 468 451.925781 L 468 483.089844 L 312.167969 483.089844 Z M 312.167969 451.925781 " style=" stroke:none;fill-rule:nonzero;fill:rgb(0%,0%,0%);fill-opacity:1;" />
</g>
</svg>