<?xml version="1.0" encoding="iso-8859-1"?>
<!-- Generator: Adobe Illustrator 19.0.0, SVG Export Plug-In . SVG Version: 6.00 Build 0)  -->
<svg xmlns="http://www.w3.org/2000/svg" xmlns:xlink="http://www.w3.org/1999/xlink" version="1.1" id="Capa_1" x="0px" y="0px" viewBox="0 0 513.6 513.6" style="enable-background:new 0 0 513.6 513.6;" xml:space="preserve" width="512px" height="512px">
<g>
	<g>
		<path d="M484.1,359.2h-57.3l-24.6-81.9h-57.4l-24.6-81.9H193.3l-24.5,81.9h-57.4l-24.6,81.9H29.5L0,457.5h513.6L484.1,359.2z     M390,293.7l19.7,65.5H267.8l19.7-65.5H390z M256.8,338.9l-13.6-45.2h27.1L256.8,338.9z M205.5,211.7H308l19.7,65.5H185.9    L205.5,211.7z M123.6,293.7h102.5l19.7,65.5H103.9L123.6,293.7z M22,441.2l19.7-65.5h102.5l19.7,65.5H22z M161.3,375.6h27.1    l-13.5,45.2L161.3,375.6z M185.9,441.2l19.7-65.5h102.5l19.7,65.5H185.9z M325.2,375.6h27.1l-13.6,45.2L325.2,375.6z M369.4,375.6    h102.5l19.7,65.5H349.7L369.4,375.6z" fill="#FFDA44"/>
	</g>
</g>
<g>
	<g>
		<rect x="248.6" y="56.1" width="16.4" height="49.2" fill="#FFDA44"/>
	</g>
</g>
<g>
	<g>
		<rect x="330.66" y="113.274" transform="matrix(0.7071 -0.7071 0.7071 0.7071 18.1582 286.7856)" width="49.2" height="16.4" fill="#FFDA44"/>
	</g>
</g>
<g>
	<g>
		<rect x="150.122" y="96.805" transform="matrix(0.7071 -0.7071 0.7071 0.7071 -39.4745 147.5091)" width="16.4" height="49.2" fill="#FFDA44"/>
	</g>
</g>
<g>
</g>
<g>
</g>
<g>
</g>
<g>
</g>
<g>
</g>
<g>
</g>
<g>
</g>
<g>
</g>
<g>
</g>
<g>
</g>
<g>
</g>
<g>
</g>
<g>
</g>
<g>
</g>
<g>
</g>
</svg>
